# xmcd
#
# Track frame offsets: 
#        150
#        13605
#        25720
#        39675
#        58996
#        80290
#        94490
#        113005
#        126042
#        145812
#        166512
#        171343
#        189302
#        210496
#        221953
#        232614
#        248653
#        266128
#        307378
#
# Disc length: 4391 seconds
#
# Revision: 0
# Processed by: cddbd v1.5.2PL0 Copyright (c) Steve Scherf et al.
# Submitted via: ExactAudioCopy v0.95b4
#
DISCID=07112513
DTITLE=Pine Box Boys - Live At Thee Parkside 20-07-2006 (vol.2)
DYEAR=2006
DGENRE=Country/Bluegrass
TTITLE0=Arkansas Killing Time
TTITLE1=West Memphis Daddy
TTITLE2=The Crow
TTITLE3=The Tardy Hearse
TTITLE4=Just A Crush
TTITLE5=Mr. Skeleton
TTITLE6=Prester John In Appalachia
TTITLE7=I Got Excited
TTITLE8=Waltzing Through The Graveyard
TTITLE9=More Pride Than Priors
TTITLE10=Introducing Jason Kleinberg - Tuning A String
TTITLE11=Rattlin' Charms
TTITLE12=The Dirty Drinking Song
TTITLE13=I Kept Her Heart
TTITLE14=The Hateful Thing
TTITLE15=Stab!
TTITLE16=Great Journey
TTITLE17=Pretty Polly
TTITLE18=Once In A Lifetime (Bonus Track)
EXTD=
EXTT0=
EXTT1=
EXTT2=
EXTT3=
EXTT4=
EXTT5=
EXTT6=
EXTT7=
EXTT8=
EXTT9=
EXTT10=
EXTT11=
EXTT12=
EXTT13=
EXTT14=
EXTT15=
EXTT16=
EXTT17=
EXTT18=
PLAYORDER=
